<svg version="1.1" id="Layer_1" xmlns="http://www.w3.org/2000/svg" xmlns:xlink="http://www.w3.org/1999/xlink" x="0px" y="0px"
	 width="100%" viewBox="0 0 1536 1024" enable-background="new 0 0 1536 1024" xml:space="preserve">
<path fill="none" opacity="1.000000" stroke="none" 
	d="
M1103.000000,1025.000000 
	C735.333313,1025.000000 368.166656,1025.000000 1.000000,1025.000000 
	C1.000000,683.666687 1.000000,342.333344 1.000000,1.000000 
	C513.000000,1.000000 1025.000000,1.000000 1537.000000,1.000000 
	C1537.000000,342.333344 1537.000000,683.666687 1537.000000,1025.000000 
	C1392.500000,1025.000000 1248.000000,1025.000000 1103.000000,1025.000000 
M696.020081,313.044586 
	C695.957703,275.713623 695.895386,238.382645 695.890869,200.312897 
	C692.305786,189.376694 684.648560,184.904541 674.655640,187.910675 
	C667.275452,190.130829 663.027527,196.207352 663.012756,205.043808 
	C662.958008,237.694031 662.946899,270.344482 663.034241,302.994537 
	C663.043152,306.318085 662.490662,308.871155 659.820557,311.267822 
	C655.620178,315.038269 651.705688,319.188202 648.088135,323.526001 
	C645.587463,326.524475 643.301392,329.901733 641.778564,333.475800 
	C638.208069,341.855713 641.699646,351.383606 649.423401,355.698425 
	C656.869873,359.858337 666.360596,357.450806 672.132446,350.417572 
	C676.211975,345.446472 680.736267,340.828461 685.210083,336.195770 
	C691.247131,329.944275 695.828857,323.062439 696.020081,313.044586 
M693.022156,758.783142 
	C693.757507,768.549927 698.026550,776.337830 705.341919,782.917664 
	C724.241150,799.916626 745.875244,812.864563 767.476257,825.929199 
	C773.498840,829.571594 779.454529,830.006287 785.398071,826.799622 
	C802.861450,817.378113 820.617004,808.391602 837.456909,797.943420 
	C872.709045,776.071655 906.049438,751.668213 933.554993,720.123108 
	C952.343079,698.575562 968.286682,675.250122 978.637207,648.440430 
	C985.393494,630.940247 991.622742,613.041321 991.819275,594.170593 
	C992.351868,543.021484 992.353455,491.859467 991.820435,440.710327 
	C991.620850,421.562775 980.455872,404.146942 960.394226,397.022400 
	C960.391541,351.751617 960.417725,306.480804 960.322266,261.210205 
	C960.315796,258.149323 959.393188,255.090347 958.883911,251.337769 
	C954.726990,244.965225 947.786072,242.189468 940.838745,244.121429 
	C934.206909,245.965652 929.998779,251.918152 929.995850,259.643127 
	C929.979370,302.623596 930.000488,345.604065 929.943848,388.584442 
	C929.941406,390.442169 929.301758,392.299072 928.035278,394.027313 
	C880.376892,393.931885 832.718567,393.836456 785.069519,393.339966 
	C785.069519,393.339966 784.882324,392.985138 784.984863,392.053589 
	C784.988464,311.723022 784.993042,231.392441 784.986938,151.061874 
	C784.986816,149.734436 784.856384,148.406998 784.750977,146.375076 
	C780.843689,137.232681 773.574463,132.693222 765.506592,134.357376 
	C756.517395,136.211563 751.093018,143.274246 751.027527,153.954254 
	C751.019592,228.470932 751.008789,302.987610 751.010681,377.504272 
	C751.010803,382.324463 751.109131,387.144684 750.999390,392.535034 
	C750.959717,392.927002 750.920105,393.318939 749.967651,393.804993 
	C702.673157,393.809692 655.378662,393.814392 608.038513,392.905426 
	C608.026428,364.909698 608.011841,336.914001 608.003235,308.918274 
	C607.998108,292.087402 608.073669,275.256134 607.973694,258.425873 
	C607.920349,249.445724 601.592102,242.810791 592.944519,242.295517 
	C585.265991,241.837982 578.611206,247.208344 576.954895,255.951797 
	C576.967285,280.292511 576.979675,304.633209 576.106445,329.315369 
	C562.945801,329.356171 549.783203,329.510620 536.626892,329.290985 
	C535.017944,329.264099 532.835815,327.584747 531.951721,326.069000 
	C526.954102,317.500366 520.376343,310.832062 511.292114,306.560669 
	C485.115021,294.252197 456.838898,313.090790 454.929596,339.230774 
	C453.620605,357.152008 462.617493,372.121429 479.736359,380.315826 
	C483.072937,381.912994 484.135040,383.623901 484.125977,387.297150 
	C483.988861,442.953430 484.110046,498.610352 483.972748,554.266663 
	C483.938049,568.329285 488.839081,580.168152 498.550140,590.064514 
	C520.603821,612.538940 542.714966,634.957642 564.904785,657.297546 
	C573.673035,666.125122 582.712708,674.682983 591.369446,683.111206 
	C586.509888,692.718567 583.872314,701.561462 585.981262,711.360779 
	C590.270569,731.291016 606.560852,742.256531 623.322266,741.599915 
	C645.304993,740.738831 660.321960,722.647522 659.151672,701.894287 
	C658.024109,681.897644 637.281921,664.116638 617.611267,667.417053 
	C614.509949,667.937439 612.751587,667.338257 610.697449,665.259277 
	C597.464417,651.865906 584.125916,638.576599 570.815735,625.259521 
	C553.971863,608.406860 537.129395,591.552795 520.270630,574.715088 
	C514.629639,569.081055 509.993774,563.005615 509.997955,554.470703 
	C510.025330,498.480804 510.045441,442.490814 509.922455,386.501160 
	C509.915619,383.388641 510.852631,381.670471 513.501465,380.338226 
	C522.292175,375.916870 528.372192,368.942444 532.668640,360.150818 
	C533.379883,358.695404 535.716003,357.180389 537.326294,357.152832 
	C550.486206,356.927521 563.652100,357.048737 576.906555,357.987885 
	C576.876099,421.993622 576.843018,485.999390 576.830017,550.005127 
	C576.829712,551.659973 577.049927,553.314819 577.029175,555.869507 
	C576.687622,566.223694 579.375122,576.010315 586.553345,583.233704 
	C594.192566,590.920898 602.707153,598.156433 611.955872,603.739929 
	C631.951050,615.811218 652.524719,626.951233 670.702271,641.763428 
	C680.177124,649.484192 689.899170,657.232056 692.842468,670.936462 
	C692.950134,699.942810 693.057739,728.949097 693.022156,758.783142 
	M840.107483,260.500000 
	C840.091553,281.150482 840.154968,301.801483 840.015381,322.451111 
	C839.968445,329.393555 842.368286,335.059723 847.442322,339.691071 
	C853.585205,345.298035 859.702271,350.933441 865.859131,356.524994 
	C872.998108,363.008575 884.480225,362.684387 890.461792,355.865631 
	C897.229980,348.150238 896.380554,336.566071 888.493286,330.143066 
	C885.404602,327.627747 882.301819,325.081238 878.950623,322.949463 
	C875.015625,320.446289 873.866455,317.252319 873.893311,312.593658 
	C874.102905,276.289978 874.029907,239.984497 873.999512,203.679626 
	C873.992493,195.282394 868.520569,188.315872 861.112305,187.013077 
	C852.135132,185.434341 844.524414,189.448166 841.734619,197.845596 
	C840.563171,201.371735 840.177734,205.292480 840.144043,209.040222 
	C839.992676,225.858902 840.096313,242.679855 840.107483,260.500000 
	z"/>
<path fill="#FE4047" opacity="1.000000" stroke="none" 
	d="
M577.154724,255.037872 
	C578.611206,247.208344 585.265991,241.837982 592.944519,242.295517 
	C601.592102,242.810791 607.920349,249.445724 607.973694,258.425873 
	C608.073669,275.256134 607.998108,292.087402 608.003235,308.918274 
	C608.011841,336.914001 608.026428,364.909698 608.304688,393.699219 
	C609.537842,394.659576 610.504700,394.971436 611.471680,394.971954 
	C656.620361,394.996277 701.769043,395.004425 746.917664,394.940155 
	C748.239197,394.938263 749.559570,394.138641 750.880493,393.710938 
	C750.920105,393.318939 750.959717,392.927002 751.343140,391.933044 
	C751.791260,390.347137 751.986877,389.363251 751.987061,388.379303 
	C752.001221,311.350098 752.004517,234.320892 751.965332,157.291702 
	C751.964600,155.870773 751.443970,154.450119 751.165894,153.029327 
	C751.093018,143.274246 756.517395,136.211563 765.506592,134.357376 
	C773.574463,132.693222 780.843689,137.232681 784.518188,147.046951 
	C784.191956,148.538849 784.017029,149.358841 784.016846,150.178879 
	C784.002686,229.701492 783.997253,309.224121 784.036743,388.746704 
	C784.037476,390.159668 784.588196,391.572357 784.882324,392.985138 
	C784.882324,392.985138 785.069519,393.339966 785.296875,393.894958 
	C786.817139,394.633667 788.109863,394.977295 789.402832,394.978058 
	C834.501709,395.004150 879.600586,395.005646 924.699402,394.961060 
	C926.119568,394.959656 927.539124,394.436340 928.958984,394.156342 
	C929.301758,392.299072 929.941406,390.442169 929.943848,388.584442 
	C930.000488,345.604065 929.979370,302.623596 929.995850,259.643127 
	C929.998779,251.918152 934.206909,245.965652 940.838745,244.121429 
	C947.786072,242.189468 954.726990,244.965225 958.626465,251.946686 
	C958.580872,259.320129 958.966125,266.084442 958.976013,272.849243 
	C959.034180,312.623077 958.982971,352.397064 959.071777,392.170746 
	C959.076050,394.095612 960.053711,396.018341 960.578125,397.942047 
	C980.455872,404.146942 991.620850,421.562775 991.820435,440.710327 
	C992.353455,491.859467 992.351868,543.021484 991.819275,594.170593 
	C991.622742,613.041321 985.393494,630.940247 978.637207,648.440430 
	C968.286682,675.250122 952.343079,698.575562 933.554993,720.123108 
	C906.049438,751.668213 872.709045,776.071655 837.456909,797.943420 
	C820.617004,808.391602 802.861450,817.378113 785.398071,826.799622 
	C779.454529,830.006287 773.498840,829.571594 767.476257,825.929199 
	C745.875244,812.864563 724.241150,799.916626 705.341919,782.917664 
	C698.026550,776.337830 693.757507,768.549927 693.354492,758.052429 
	C693.788147,756.671753 693.977722,756.021912 693.978149,755.371887 
	C693.995239,728.162231 694.007324,700.952515 693.959106,673.742920 
	C693.956909,672.504944 693.391907,671.268066 693.089111,670.030640 
	C689.899170,657.232056 680.177124,649.484192 670.702271,641.763428 
	C652.524719,626.951233 631.951050,615.811218 611.955872,603.739929 
	C602.707153,598.156433 594.192566,590.920898 586.553345,583.233704 
	C579.375122,576.010315 576.687622,566.223694 577.358765,555.100586 
	C577.789551,553.679443 577.979309,553.027100 577.979431,552.374817 
	C577.994751,488.620087 578.002930,424.865326 577.948181,361.110626 
	C577.947021,359.761658 577.209900,358.413300 576.816162,357.064636 
	C563.652100,357.048737 550.486206,356.927521 537.326294,357.152832 
	C535.716003,357.180389 533.379883,358.695404 532.668640,360.150818 
	C528.372192,368.942444 522.292175,375.916870 513.501465,380.338226 
	C510.852631,381.670471 509.915619,383.388641 509.922455,386.501160 
	C510.045441,442.490814 510.025330,498.480804 509.997955,554.470703 
	C509.993774,563.005615 514.629639,569.081055 520.270630,574.715088 
	C537.129395,591.552795 553.971863,608.406860 570.815735,625.259521 
	C584.125916,638.576599 597.464417,651.865906 610.697449,665.259277 
	C612.751587,667.338257 614.509949,667.937439 617.611267,667.417053 
	C637.281921,664.116638 658.024109,681.897644 659.151672,701.894287 
	C660.321960,722.647522 645.304993,740.738831 623.322266,741.599915 
	C606.560852,742.256531 590.270569,731.291016 585.981262,711.360779 
	C583.872314,701.561462 586.509888,692.718567 591.369446,683.111206 
	C582.712708,674.682983 573.673035,666.125122 564.904785,657.297546 
	C542.714966,634.957642 520.603821,612.538940 498.550140,590.064514 
	C488.839081,580.168152 483.938049,568.329285 483.972748,554.266663 
	C484.110046,498.610352 483.988861,442.953430 484.125977,387.297150 
	C484.135040,383.623901 483.072937,381.912994 479.736359,380.315826 
	C462.617493,372.121429 453.620605,357.152008 454.929596,339.230774 
	C456.838898,313.090790 485.115021,294.252197 511.292114,306.560669 
	C520.376343,310.832062 526.954102,317.500366 531.951721,326.069000 
	C532.835815,327.584747 535.017944,329.264099 536.626892,329.290985 
	C549.783203,329.510620 562.945801,329.356171 576.852539,328.860352 
	C577.728638,327.763031 577.971375,327.120850 577.972046,326.478394 
	C577.995361,303.747650 578.007629,281.016815 577.963867,258.286133 
	C577.961792,257.202881 577.436401,256.120605 577.154724,255.037872 
M959.457520,436.639435 
	C956.802673,429.969330 952.401306,427.009583 944.949341,427.008789 
	C834.148621,426.996887 723.347900,426.994324 612.547180,427.002502 
	C611.113586,427.002625 609.679932,427.171204 608.355652,427.254272 
	C608.192200,427.950531 608.054626,428.263275 608.054443,428.576080 
	C608.030334,472.729401 607.947144,516.883057 608.191711,561.034973 
	C608.204834,563.406982 610.428772,566.606567 612.554626,567.987427 
	C624.236450,575.575256 636.245056,582.657593 648.072754,590.023926 
	C666.828979,601.705383 685.698059,613.273682 701.432373,629.058777 
	C714.376404,642.044617 723.137329,656.997375 723.039062,676.094788 
	C722.907104,701.753235 722.930603,727.413452 723.127808,753.071045 
	C723.145752,755.401001 724.242920,758.630676 725.971313,759.897888 
	C741.745911,771.462830 757.765686,782.693665 773.728210,794.001770 
	C777.970947,797.007385 781.940002,796.267456 786.153992,793.520264 
	C792.813904,789.178345 799.648438,785.086243 806.553162,781.140747 
	C846.071411,758.559509 882.029236,731.535889 911.781982,696.800476 
	C928.731934,677.011841 943.138428,655.533691 951.464966,630.678345 
	C955.262329,619.342834 957.079407,607.343872 960.281250,596.058411 
	C960.520020,595.545471 960.967590,595.032715 960.967896,594.519653 
	C960.998962,542.661194 960.999939,490.802795 960.949585,438.944397 
	C960.949036,438.364685 960.254761,437.785614 959.457520,436.639435 
M481.652191,338.565277 
	C479.562317,347.870850 483.432953,354.935730 492.039520,357.524872 
	C498.940125,359.600769 506.358551,355.284393 509.085022,347.607025 
	C511.574463,340.596924 507.965637,332.495911 501.056519,329.584839 
	C493.403290,326.360291 485.919586,329.575378 481.652191,338.565277 
M628.412842,692.856689 
	C622.378174,688.845764 615.286072,692.309326 612.398132,696.082947 
	C608.984009,700.544128 608.960449,707.682739 612.415039,711.852356 
	C615.607300,715.705383 619.634033,717.707153 624.711548,716.647949 
	C629.840576,715.577942 633.618408,712.591125 634.759888,707.419006 
	C636.041748,701.611145 634.325623,696.595825 628.412842,692.856689 
z"/>
<path fill="#FE4047" opacity="1.000000" stroke="none" 
	d="
M840.107727,260.000000 
	C840.096313,242.679855 839.992676,225.858902 840.144043,209.040222 
	C840.177734,205.292480 840.563171,201.371735 841.734619,197.845596 
	C844.524414,189.448166 852.135132,185.434341 861.112305,187.013077 
	C868.520569,188.315872 873.992493,195.282394 873.999512,203.679626 
	C874.029907,239.984497 874.102905,276.289978 873.893311,312.593658 
	C873.866455,317.252319 875.015625,320.446289 878.950623,322.949463 
	C882.301819,325.081238 885.404602,327.627747 888.493286,330.143066 
	C896.380554,336.566071 897.229980,348.150238 890.461792,355.865631 
	C884.480225,362.684387 872.998108,363.008575 865.859131,356.524994 
	C859.702271,350.933441 853.585205,345.298035 847.442322,339.691071 
	C842.368286,335.059723 839.968445,329.393555 840.015381,322.451111 
	C840.154968,301.801483 840.091553,281.150482 840.107727,260.000000 
z"/>
<path fill="#FE4047" opacity="1.000000" stroke="none" 
	d="
M695.862427,313.965546 
	C695.828857,323.062439 691.247131,329.944275 685.210083,336.195770 
	C680.736267,340.828461 676.211975,345.446472 672.132446,350.417572 
	C666.360596,357.450806 656.869873,359.858337 649.423401,355.698425 
	C641.699646,351.383606 638.208069,341.855713 641.778564,333.475800 
	C643.301392,329.901733 645.587463,326.524475 648.088135,323.526001 
	C651.705688,319.188202 655.620178,315.038269 659.820557,311.267822 
	C662.490662,308.871155 663.043152,306.318085 663.034241,302.994537 
	C662.946899,270.344482 662.958008,237.694031 663.012756,205.043808 
	C663.027527,196.207352 667.275452,190.130829 674.655640,187.910675 
	C684.648560,184.904541 692.305786,189.376694 695.600281,200.997513 
	C695.208862,202.332611 695.020203,202.983047 695.019897,203.633575 
	C695.004089,239.164200 694.995361,274.694824 695.038696,310.225403 
	C695.040222,311.472443 695.575745,312.718842 695.862427,313.965546 
z"/>
<path fill="#FD575E" opacity="1.000000" stroke="none" 
	d="
M784.933594,392.519348 
	C784.588196,391.572357 784.037476,390.159668 784.036743,388.746704 
	C783.997253,309.224121 784.002686,229.701492 784.016846,150.178879 
	C784.017029,149.358841 784.191956,148.538849 784.536072,147.399200 
	C784.856384,148.406998 784.986816,149.734436 784.986938,151.061874 
	C784.993042,231.392441 784.988464,311.723022 784.933594,392.519348 
z"/>
<path fill="#FE4F57" opacity="1.000000" stroke="none" 
	d="
M751.096680,153.491791 
	C751.443970,154.450119 751.964600,155.870773 751.965332,157.291702 
	C752.004517,234.320892 752.001221,311.350098 751.987061,388.379303 
	C751.986877,389.363251 751.791260,390.347137 751.424316,391.647949 
	C751.109131,387.144684 751.010803,382.324463 751.010681,377.504272 
	C751.008789,302.987610 751.019592,228.470932 751.096680,153.491791 
z"/>
<path fill="#FE5B5F" opacity="1.000000" stroke="none" 
	d="
M576.861328,357.526245 
	C577.209900,358.413300 577.947021,359.761658 577.948181,361.110626 
	C578.002930,424.865326 577.994751,488.620087 577.979431,552.374817 
	C577.979309,553.027100 577.789551,553.679443 577.427856,554.650696 
	C577.049927,553.314819 576.829712,551.659973 576.830017,550.005127 
	C576.843018,485.999390 576.876099,421.993622 576.830017,357.526245 
z"/>
<path fill="#FE555B" opacity="1.000000" stroke="none" 
	d="
M960.486206,397.482239 
	C960.053711,396.018341 959.076050,394.095612 959.071777,392.170746 
	C958.982971,352.397064 959.034180,312.623077 958.976013,272.849243 
	C958.966125,266.084442 958.580872,259.320129 958.632812,252.293045 
	C959.393188,255.090347 960.315796,258.149323 960.322266,261.210205 
	C960.417725,306.480804 960.391541,351.751617 960.486206,397.482239 
z"/>
<path fill="#FE555B" opacity="1.000000" stroke="none" 
	d="
M928.497131,394.091827 
	C927.539124,394.436340 926.119568,394.959656 924.699402,394.961060 
	C879.600586,395.005646 834.501709,395.004150 789.402832,394.978058 
	C788.109863,394.977295 786.817139,394.633667 785.292236,394.095490 
	C832.718567,393.836456 880.376892,393.931885 928.497131,394.091827 
z"/>
<path fill="#FE5B5F" opacity="1.000000" stroke="none" 
	d="
M750.424072,393.757965 
	C749.559570,394.138641 748.239197,394.938263 746.917664,394.940155 
	C701.769043,395.004425 656.620361,394.996277 611.471680,394.971954 
	C610.504700,394.971436 609.537842,394.659576 608.327515,394.156067 
	C655.378662,393.814392 702.673157,393.809692 750.424072,393.757965 
z"/>
<path fill="#FE555B" opacity="1.000000" stroke="none" 
	d="
M695.941284,313.505066 
	C695.575745,312.718842 695.040222,311.472443 695.038696,310.225403 
	C694.995361,274.694824 695.004089,239.164200 695.019897,203.633575 
	C695.020203,202.983047 695.208862,202.332611 695.571350,201.366913 
	C695.895386,238.382645 695.957703,275.713623 695.941284,313.505066 
z"/>
<path fill="#FE555B" opacity="1.000000" stroke="none" 
	d="
M692.965820,670.483521 
	C693.391907,671.268066 693.956909,672.504944 693.959106,673.742920 
	C694.007324,700.952515 693.995239,728.162231 693.978149,755.371887 
	C693.977722,756.021912 693.788147,756.671753 693.426025,757.638550 
	C693.057739,728.949097 692.950134,699.942810 692.965820,670.483521 
z"/>
<path fill="#FE5B5F" opacity="1.000000" stroke="none" 
	d="
M577.054810,255.494843 
	C577.436401,256.120605 577.961792,257.202881 577.963867,258.286133 
	C578.007629,281.016815 577.995361,303.747650 577.972046,326.478394 
	C577.971375,327.120850 577.728638,327.763031 577.295349,328.689636 
	C576.979675,304.633209 576.967285,280.292511 577.054810,255.494843 
z"/>
<path fill="#010000" opacity="1.000000" stroke="none" 
	d="
M959.794678,595.645874 
	C957.079407,607.343872 955.262329,619.342834 951.464966,630.678345 
	C943.138428,655.533691 928.731934,677.011841 911.781982,696.800476 
	C882.029236,731.535889 846.071411,758.559509 806.553162,781.140747 
	C799.648438,785.086243 792.813904,789.178345 786.153992,793.520264 
	C781.940002,796.267456 777.970947,797.007385 773.728210,794.001770 
	C757.765686,782.693665 741.745911,771.462830 725.971313,759.897888 
	C724.242920,758.630676 723.145752,755.401001 723.127808,753.071045 
	C722.930603,727.413452 722.907104,701.753235 723.039062,676.094788 
	C723.137329,656.997375 714.376404,642.044617 701.432373,629.058777 
	C685.698059,613.273682 666.828979,601.705383 648.072754,590.023926 
	C636.245056,582.657593 624.236450,575.575256 612.554626,567.987427 
	C610.428772,566.606567 608.204834,563.406982 608.191711,561.034973 
	C607.947144,516.883057 608.030334,472.729401 608.054443,428.576080 
	C608.054626,428.263275 608.192200,427.950531 608.355652,427.254272 
	C609.679932,427.171204 611.113586,427.002625 612.547180,427.002502 
	C723.347900,426.994324 834.148621,426.996887 944.949341,427.008789 
	C952.401306,427.009583 956.802673,429.969330 959.589478,437.370422 
	C959.694580,449.402191 959.636475,460.703033 959.646606,472.003784 
	C959.683655,513.217834 959.743469,554.431824 959.794678,595.645874 
M912.632690,499.860626 
	C912.755615,498.374664 912.960510,496.890228 912.988647,495.402466 
	C913.239502,482.119843 910.149658,479.980072 897.136047,484.389099 
	C896.982422,484.441132 896.861572,484.588440 896.708252,484.642853 
	C887.871704,487.777985 878.991882,490.796478 870.203735,494.061554 
	C851.739868,500.921387 833.294678,507.835114 814.936951,514.971313 
	C813.231323,515.634277 811.213684,517.943359 811.037659,519.661926 
	C810.330383,526.567749 810.315308,533.543152 809.995422,540.490479 
	C809.783508,545.091064 812.006958,547.284180 816.515381,547.012695 
	C826.767517,546.395325 837.060242,546.076050 847.250366,544.893921 
	C861.375183,543.255493 875.399780,540.794861 888.076477,533.747498 
	C901.208801,526.446777 909.987732,515.907410 912.632690,499.860626 
M745.012024,545.341736 
	C745.375916,543.595825 746.018066,541.855225 746.051941,540.102966 
	C746.158325,534.608765 745.553650,529.058899 746.132141,523.627258 
	C746.757080,517.759888 744.361938,514.879578 739.122925,513.006714 
	C715.019287,504.390350 691.031738,495.446747 666.884644,486.955872 
	C661.228088,484.966827 655.144897,484.064026 649.180969,483.182312 
	C647.966248,483.002747 645.282593,485.084869 645.201050,486.258209 
	C644.868774,491.038177 644.626038,495.999115 645.539368,500.660370 
	C649.288757,519.794373 661.245422,532.319641 679.482239,537.684570 
	C693.018921,541.666809 707.173340,543.799866 721.188843,545.803284 
	C728.776306,546.887756 736.649170,545.975647 745.012024,545.341736 
z"/>
<path fill="#040101" opacity="1.000000" stroke="none" 
	d="
M481.789612,338.184143 
	C485.919586,329.575378 493.403290,326.360291 501.056519,329.584839 
	C507.965637,332.495911 511.574463,340.596924 509.085022,347.607025 
	C506.358551,355.284393 498.940125,359.600769 492.039520,357.524872 
	C483.432953,354.935730 479.562317,347.870850 481.789612,338.184143 
z"/>
<path fill="#040101" opacity="1.000000" stroke="none" 
	d="
M628.765015,693.008423 
	C634.325623,696.595825 636.041748,701.611145 634.759888,707.419006 
	C633.618408,712.591125 629.840576,715.577942 624.711548,716.647949 
	C619.634033,717.707153 615.607300,715.705383 612.415039,711.852356 
	C608.960449,707.682739 608.984009,700.544128 612.398132,696.082947 
	C615.286072,692.309326 622.378174,688.845764 628.765015,693.008423 
z"/>
<path fill="#FE4F57" opacity="1.000000" stroke="none" 
	d="
M960.037964,595.852173 
	C959.743469,554.431824 959.683655,513.217834 959.646606,472.003784 
	C959.636475,460.703033 959.694580,449.402191 959.802856,437.653809 
	C960.254761,437.785614 960.949036,438.364685 960.949585,438.944397 
	C960.999939,490.802795 960.998962,542.661194 960.967896,594.519653 
	C960.967590,595.032715 960.520020,595.545471 960.037964,595.852173 
z"/>
<path fill="#FEFEFE" opacity="1.000000" stroke="none" 
	d="
M912.382568,500.227722 
	C909.987732,515.907410 901.208801,526.446777 888.076477,533.747498 
	C875.399780,540.794861 861.375183,543.255493 847.250366,544.893921 
	C837.060242,546.076050 826.767517,546.395325 816.515381,547.012695 
	C812.006958,547.284180 809.783508,545.091064 809.995422,540.490479 
	C810.315308,533.543152 810.330383,526.567749 811.037659,519.661926 
	C811.213684,517.943359 813.231323,515.634277 814.936951,514.971313 
	C833.294678,507.835114 851.739868,500.921387 870.203735,494.061554 
	C878.991882,490.796478 887.871704,487.777985 896.708252,484.642853 
	C896.861572,484.588440 896.982422,484.441132 897.136047,484.389099 
	C910.149658,479.980072 913.239502,482.119843 912.988647,495.402466 
	C912.960510,496.890228 912.755615,498.374664 912.382568,500.227722 
z"/>
<path fill="#FEFEFE" opacity="1.000000" stroke="none" 
	d="
M744.702637,545.652954 
	C736.649170,545.975647 728.776306,546.887756 721.188843,545.803284 
	C707.173340,543.799866 693.018921,541.666809 679.482239,537.684570 
	C661.245422,532.319641 649.288757,519.794373 645.539368,500.660370 
	C644.626038,495.999115 644.868774,491.038177 645.201050,486.258209 
	C645.282593,485.084869 647.966248,483.002747 649.180969,483.182312 
	C655.144897,484.064026 661.228088,484.966827 666.884644,486.955872 
	C691.031738,495.446747 715.019287,504.390350 739.122925,513.006714 
	C744.361938,514.879578 746.757080,517.759888 746.132141,523.627258 
	C745.553650,529.058899 746.158325,534.608765 746.051941,540.102966 
	C746.018066,541.855225 745.375916,543.595825 744.702637,545.652954 
z"/>
</svg>